<mxfile host="app.diagrams.net" modified="2023-05-04T15:41:10.346Z" agent="Mozilla/5.0 (Macintosh; Intel Mac OS X 10_15_7) AppleWebKit/537.36 (KHTML, like Gecko) Chrome/111.0.0.0 Safari/537.36" etag="_ZyTkmIMyHeOjsv-WFJG" version="21.2.7" type="github">
  <diagram name="PÃ¡gina-1" id="pW3g8RfUsUve2e5VPUbd">
    <mxGraphModel dx="837" dy="1192" grid="1" gridSize="10" guides="1" tooltips="1" connect="1" arrows="1" fold="1" page="1" pageScale="1" pageWidth="1100" pageHeight="850" math="0" shadow="0">
      <root>
        <mxCell id="0" />
        <mxCell id="1" parent="0" />
        <mxCell id="eYnnE1rHSoS4j533D0Aq-7" style="edgeStyle=orthogonalEdgeStyle;rounded=0;orthogonalLoop=1;jettySize=auto;html=1;entryX=0.5;entryY=0;entryDx=0;entryDy=0;" edge="1" parent="1" source="eYnnE1rHSoS4j533D0Aq-2" target="eYnnE1rHSoS4j533D0Aq-6">
          <mxGeometry relative="1" as="geometry" />
        </mxCell>
        <mxCell id="eYnnE1rHSoS4j533D0Aq-2" value="main" style="strokeWidth=2;html=1;shape=mxgraph.flowchart.start_1;whiteSpace=wrap;" vertex="1" parent="1">
          <mxGeometry x="60" y="60" width="100" height="60" as="geometry" />
        </mxCell>
        <mxCell id="eYnnE1rHSoS4j533D0Aq-14" style="edgeStyle=orthogonalEdgeStyle;rounded=0;orthogonalLoop=1;jettySize=auto;html=1;exitX=1;exitY=0.5;exitDx=0;exitDy=0;entryX=0;entryY=0.5;entryDx=0;entryDy=0;entryPerimeter=0;" edge="1" parent="1" source="eYnnE1rHSoS4j533D0Aq-3" target="eYnnE1rHSoS4j533D0Aq-13">
          <mxGeometry relative="1" as="geometry" />
        </mxCell>
        <mxCell id="eYnnE1rHSoS4j533D0Aq-3" value="line_parser" style="rounded=1;whiteSpace=wrap;html=1;absoluteArcSize=1;arcSize=14;strokeWidth=2;" vertex="1" parent="1">
          <mxGeometry x="290" y="320" width="100" height="50" as="geometry" />
        </mxCell>
        <mxCell id="eYnnE1rHSoS4j533D0Aq-9" style="edgeStyle=orthogonalEdgeStyle;rounded=0;orthogonalLoop=1;jettySize=auto;html=1;exitX=0.5;exitY=1;exitDx=0;exitDy=0;entryX=0;entryY=0.5;entryDx=0;entryDy=0;" edge="1" parent="1" source="eYnnE1rHSoS4j533D0Aq-4" target="eYnnE1rHSoS4j533D0Aq-5">
          <mxGeometry relative="1" as="geometry" />
        </mxCell>
        <mxCell id="eYnnE1rHSoS4j533D0Aq-4" value="start_env" style="rounded=1;whiteSpace=wrap;html=1;absoluteArcSize=1;arcSize=14;strokeWidth=2;" vertex="1" parent="1">
          <mxGeometry x="60" y="230" width="100" height="50" as="geometry" />
        </mxCell>
        <mxCell id="eYnnE1rHSoS4j533D0Aq-10" style="edgeStyle=orthogonalEdgeStyle;rounded=0;orthogonalLoop=1;jettySize=auto;html=1;exitX=1;exitY=0.5;exitDx=0;exitDy=0;entryX=0;entryY=0.5;entryDx=0;entryDy=0;" edge="1" parent="1" source="eYnnE1rHSoS4j533D0Aq-5" target="eYnnE1rHSoS4j533D0Aq-3">
          <mxGeometry relative="1" as="geometry" />
        </mxCell>
        <mxCell id="eYnnE1rHSoS4j533D0Aq-5" value="start_shell" style="rounded=1;whiteSpace=wrap;html=1;absoluteArcSize=1;arcSize=14;strokeWidth=2;" vertex="1" parent="1">
          <mxGeometry x="150" y="320" width="100" height="50" as="geometry" />
        </mxCell>
        <mxCell id="eYnnE1rHSoS4j533D0Aq-8" style="edgeStyle=orthogonalEdgeStyle;rounded=0;orthogonalLoop=1;jettySize=auto;html=1;exitX=0.5;exitY=1;exitDx=0;exitDy=0;entryX=0.5;entryY=0;entryDx=0;entryDy=0;" edge="1" parent="1" source="eYnnE1rHSoS4j533D0Aq-6" target="eYnnE1rHSoS4j533D0Aq-4">
          <mxGeometry relative="1" as="geometry" />
        </mxCell>
        <mxCell id="eYnnE1rHSoS4j533D0Aq-6" value="ft_sigaction" style="rounded=1;whiteSpace=wrap;html=1;absoluteArcSize=1;arcSize=14;strokeWidth=2;" vertex="1" parent="1">
          <mxGeometry x="60" y="160" width="100" height="50" as="geometry" />
        </mxCell>
        <mxCell id="eYnnE1rHSoS4j533D0Aq-12" value="start_exec" style="rounded=1;whiteSpace=wrap;html=1;absoluteArcSize=1;arcSize=14;strokeWidth=2;" vertex="1" parent="1">
          <mxGeometry x="560" y="320" width="100" height="50" as="geometry" />
        </mxCell>
        <mxCell id="eYnnE1rHSoS4j533D0Aq-15" style="edgeStyle=orthogonalEdgeStyle;rounded=0;orthogonalLoop=1;jettySize=auto;html=1;exitX=1;exitY=0.5;exitDx=0;exitDy=0;exitPerimeter=0;entryX=0;entryY=0.5;entryDx=0;entryDy=0;" edge="1" parent="1" source="eYnnE1rHSoS4j533D0Aq-13" target="eYnnE1rHSoS4j533D0Aq-12">
          <mxGeometry relative="1" as="geometry" />
        </mxCell>
        <mxCell id="eYnnE1rHSoS4j533D0Aq-13" value="token_lst &amp;amp;&amp;amp; cmd_lst" style="strokeWidth=2;html=1;shape=mxgraph.flowchart.decision;whiteSpace=wrap;" vertex="1" parent="1">
          <mxGeometry x="420" y="295" width="100" height="100" as="geometry" />
        </mxCell>
        <mxCell id="eYnnE1rHSoS4j533D0Aq-16" value="check_cmd" style="strokeWidth=2;html=1;shape=mxgraph.flowchart.decision;whiteSpace=wrap;" vertex="1" parent="1">
          <mxGeometry x="680" y="295" width="100" height="100" as="geometry" />
        </mxCell>
        <mxCell id="eYnnE1rHSoS4j533D0Aq-17" value="check_pipe" style="strokeWidth=2;html=1;shape=mxgraph.flowchart.decision;whiteSpace=wrap;" vertex="1" parent="1">
          <mxGeometry x="560" y="400" width="100" height="100" as="geometry" />
        </mxCell>
        <mxCell id="eYnnE1rHSoS4j533D0Aq-18" value="start_pipes" style="rounded=1;whiteSpace=wrap;html=1;absoluteArcSize=1;arcSize=14;strokeWidth=2;" vertex="1" parent="1">
          <mxGeometry x="560" y="540" width="100" height="50" as="geometry" />
        </mxCell>
      </root>
    </mxGraphModel>
  </diagram>
</mxfile>
